<svg width="56" height="64" viewBox="0 0 56 64" fill="none" xmlns="http://www.w3.org/2000/svg">
<path d="M0 4C0 1.79086 1.79086 0 4 0H52C54.2091 0 56 1.79086 56 4V47.2773C56 48.7519 55.1887 50.1069 53.8889 50.8032L30.3611 63.4074C29.6236 63.8025 28.8118 64 28 64C27.1882 64 26.3764 63.8025 25.6389 63.4074L2.11112 50.8032C0.811295 50.1069 0 48.7519 0 47.2773V4Z" fill="url(#paint0_linear)"/>
<path d="M35.4003 19C34.6395 19 33.9445 19.4317 33.6074 20.1138L33.2105 20.9167L26.5789 23.7917V31.4583L33.2105 34.3333L33.6074 35.1362C33.9445 35.8183 34.6395 36.25 35.4003 36.25H36.0526V29.2815C36.3402 29.1136 36.5791 28.8721 36.7453 28.5814C36.9116 28.2907 36.9994 27.9609 37 27.625C36.9997 27.2888 36.9121 26.9586 36.7458 26.6675C36.5795 26.3764 36.3405 26.1347 36.0526 25.9666V19H35.4003ZM20.8947 23.7917C19.8526 23.7917 19 24.6542 19 25.7083V29.5417C19 30.5958 19.8526 31.4583 20.8947 31.4583H22.7895V35.3026C22.7895 35.8258 23.2136 36.25 23.7368 36.25V36.25C24.2601 36.25 24.6842 35.8258 24.6842 35.3026V29.5417V23.7917H20.8947Z" fill="white"/>
<defs>
<linearGradient id="paint0_linear" x1="0" y1="0" x2="34.4615" y2="60.3077" gradientUnits="userSpaceOnUse">
<stop stop-color="#FF8CF3"/>
<stop offset="1" stop-color="#005DFF"/>
</linearGradient>
</defs>
</svg>
