<svg width="514" height="206" viewBox="0 0 514 206" fill="none" xmlns="http://www.w3.org/2000/svg">
<path d="M226.999 -37.9939C235.999 6.00613 280 195.999 280 195.999C280 195.999 -46.9433 127.001 9.00049 37.9993C64.9443 -51.0021 362.999 166.998 362.999 166.998L440.001 138.999L513.001 195.999" stroke="#D1BAFF" stroke-width="2"/>
<path d="M226.999 -37.9939C235.999 6.00613 280 195.999 280 195.999C280 195.999 -46.9433 127.001 9.00049 37.9993C64.9443 -51.0021 362.999 166.998 362.999 166.998L440.001 138.999L513.001 195.999" stroke="#F66025" stroke-width="2"/>
<path d="M226.999 -37.9939C235.999 6.00613 280 195.999 280 195.999C280 195.999 -46.9433 127.001 9.00049 37.9993C64.9443 -51.0021 362.999 166.998 362.999 166.998L440.001 138.999L513.001 195.999" stroke="url(#paint0_linear)" stroke-width="2"/>
<defs>
<linearGradient id="paint0_linear" x1="32.0009" y1="688.001" x2="1208.01" y2="515.929" gradientUnits="userSpaceOnUse">
<stop stop-color="#E0FF23"/>
<stop offset="1" stop-color="#F66025"/>
</linearGradient>
</defs>
</svg>
