<svg width="791" height="645" viewBox="0 0 791 645" fill="none" xmlns="http://www.w3.org/2000/svg">
<path d="M439.852 505.745C439.852 505.745 439.855 505.75 439.863 505.759M439.863 505.759C441.203 507.5 564.512 667.946 454.685 639.103C363.017 615.029 -278.315 364.603 219.685 316.603C219.685 316.603 161.569 277.623 105.394 231.75M439.863 505.759C441.109 507.374 548.055 645.361 611.184 519.103C674.685 392.103 601.685 480.603 543.185 458.103L789.685 298.603L627.185 348.603L663.685 261.103L219.685 153.367L273.184 106.906M105.394 231.75C97.1085 224.984 88.8657 218.068 80.8578 211.106M105.394 231.75C97.249 261.325 92.6847 281.603 92.6847 281.603C92.6847 281.603 88.7226 249.22 80.8578 211.106M105.394 231.75C125.953 157.093 169.325 23.1905 219.684 6.63307C289.995 -16.4837 307.684 51.6027 273.184 106.906M80.8578 211.106C23.5229 161.255 -21.7722 108.995 15.684 92.1029C46.7754 78.0813 68.5756 151.583 80.8578 211.106ZM273.184 106.906C250.451 143.348 354.184 106.906 354.184 106.906L388.649 6.63304L273.184 106.906Z" stroke="#E0FF23" stroke-width="3"/>
<path d="M439.852 505.745C439.852 505.745 439.855 505.75 439.863 505.759M439.863 505.759C441.203 507.5 564.512 667.946 454.685 639.103C363.017 615.029 -278.315 364.603 219.685 316.603C219.685 316.603 161.569 277.623 105.394 231.75M439.863 505.759C441.109 507.374 548.055 645.361 611.184 519.103C674.685 392.103 601.685 480.603 543.185 458.103L789.685 298.603L627.185 348.603L663.685 261.103L219.685 153.367L273.184 106.906M105.394 231.75C97.1085 224.984 88.8657 218.068 80.8578 211.106M105.394 231.75C97.249 261.325 92.6847 281.603 92.6847 281.603C92.6847 281.603 88.7226 249.22 80.8578 211.106M105.394 231.75C125.953 157.093 169.325 23.1905 219.684 6.63307C289.995 -16.4837 307.684 51.6027 273.184 106.906M80.8578 211.106C23.5229 161.255 -21.7722 108.995 15.684 92.1029C46.7754 78.0813 68.5756 151.583 80.8578 211.106ZM273.184 106.906C250.451 143.348 354.184 106.906 354.184 106.906L388.649 6.63304L273.184 106.906Z" stroke="url(#paint0_linear)" stroke-width="3"/>
<defs>
<linearGradient id="paint0_linear" x1="522.153" y1="150.126" x2="190.019" y2="465.449" gradientUnits="userSpaceOnUse">
<stop stop-color="#F66E39"/>
<stop offset="1" stop-color="#E0FF23"/>
</linearGradient>
</defs>
</svg>
