<svg width="48" height="48" viewBox="0 0 48 48" fill="none" xmlns="http://www.w3.org/2000/svg">
<path d="M23.5528 8.09173C23.4276 8.14284 23.4174 8.18373 23.3969 8.65647L23.379 9.10621L23.4608 9.17265C23.54 9.24165 23.563 9.30553 23.5145 9.33364C23.4506 9.37197 23.5017 9.80638 23.5707 9.80638C23.5835 9.80638 23.5911 9.87282 23.586 9.95204C23.5784 10.0824 23.5707 10.1003 23.5221 10.1079C23.4864 10.113 23.4634 10.1028 23.4634 10.0824C23.4608 10.0645 23.4353 10.0159 23.402 9.97504C23.3458 9.9086 23.3305 9.90349 23.2334 9.91882C23.1746 9.92649 23.1031 9.95204 23.0724 9.96993C23.0417 9.99037 22.9497 10.0185 22.8654 10.0338C22.7709 10.0517 22.6022 10.1207 22.4106 10.2204C22.0477 10.4094 21.9404 10.5168 21.8382 10.7825C21.7768 10.9461 21.7717 10.9844 21.7819 11.2323C21.7947 11.4904 21.8049 11.5287 21.9531 11.9273C22.04 12.1599 22.1244 12.3515 22.1371 12.3566C22.1499 12.3617 22.1601 12.3796 22.1601 12.395C22.1601 12.4614 22.2521 12.6428 22.2853 12.6428C22.3058 12.6428 22.3135 12.6582 22.3032 12.6812C22.2956 12.7016 22.3186 12.7604 22.3518 12.8115C22.4233 12.9163 22.4336 12.9725 22.4514 13.3072C22.4591 13.4657 22.4514 13.5704 22.4336 13.6062C22.3952 13.6752 22.1116 13.8924 21.8586 14.0432C21.6491 14.1658 20.4787 14.7638 20.4429 14.7638C20.3969 14.7638 20.4302 14.6795 20.6014 14.3779C20.8543 13.9307 20.9336 13.7135 20.9336 13.481C20.9336 13.1411 20.7394 12.8779 20.4302 12.7885C20.121 12.6991 19.9446 12.6607 19.8271 12.648C19.7172 12.6377 19.7019 12.6428 19.6891 12.6914C19.6635 12.7859 19.6227 12.7502 19.6431 12.648C19.6508 12.5968 19.6661 12.4844 19.6738 12.4001C19.6814 12.3158 19.6993 12.2391 19.7172 12.2289C19.7581 12.2033 19.7709 11.613 19.7325 11.5159C19.6917 11.4214 19.6175 11.4035 19.4974 11.4546C19.3978 11.4929 19.2419 11.5006 19.1065 11.4699C18.9915 11.4418 18.8995 11.5031 18.879 11.6181C18.8484 11.7996 18.8612 12.1062 18.9046 12.1854C18.9327 12.2416 18.9378 12.2953 18.9276 12.3643C18.9123 12.4486 18.9225 12.4844 18.9761 12.5662C19.0554 12.6888 19.0579 12.7093 18.9889 12.7272C18.9506 12.7374 18.9327 12.7246 18.9148 12.6786C18.8842 12.602 18.879 12.602 18.5826 12.6786C17.8901 12.8575 17.6627 13.0389 17.6627 13.4094C17.6627 13.6599 17.8492 14.1403 18.0613 14.4393C18.1099 14.5057 18.1482 14.5645 18.1482 14.5721C18.1482 14.5951 17.701 14.5849 17.5988 14.5568C17.3688 14.498 17.2283 14.4265 17.1772 14.3422C17.052 14.1403 17.0673 13.7263 17.2181 13.2382C17.4608 12.4589 17.4634 12.4435 17.4506 12.1905C17.4327 11.866 17.3842 11.7817 17.1005 11.5875C16.5997 11.2425 16.3058 11.1122 16.0451 11.1096C15.9634 11.1096 15.8586 11.1275 15.8101 11.148C15.6695 11.2042 15.4523 11.4086 15.3322 11.5926C15.1993 11.7996 15.0434 11.958 14.9055 12.0296C14.8467 12.0577 14.6576 12.1215 14.4864 12.1675C14.075 12.28 14.0085 12.3106 13.8578 12.4512C13.684 12.6122 13.6175 12.7783 13.615 13.0389C13.6124 13.2996 13.6559 13.3992 13.9319 13.7289C14.1056 13.9384 14.1388 13.9895 14.1312 14.056C14.1184 14.1888 14.0341 14.2169 13.7683 14.1761C13.4233 14.1224 13.2802 14.1914 13.2138 14.4418C13.155 14.659 13.2496 14.9733 13.4029 15.0653C13.5715 15.1675 13.5894 15.165 13.638 15.0066C13.6635 14.9299 13.6891 14.866 13.6993 14.866C13.707 14.866 13.8194 14.8839 13.9446 14.9069C14.2129 14.9554 14.3944 14.9427 14.5426 14.8686C14.5988 14.8379 14.6474 14.8251 14.6474 14.8353C14.6474 14.8481 14.6141 14.9324 14.5733 15.0219C14.3893 15.4307 14.4199 15.7067 14.6857 15.9699C14.77 16.0543 15.0383 16.1897 15.1457 16.1999C15.2428 16.2101 15.2632 16.1386 15.184 16.0543C15.1508 16.0185 15.1201 15.9367 15.1022 15.8319C15.0639 15.5968 15.1073 15.418 15.253 15.2033C15.3194 15.1088 15.391 14.9861 15.4165 14.9299C15.4753 14.7996 15.552 14.2962 15.5315 14.1735C15.5238 14.1224 15.4472 13.9384 15.3629 13.7646C15.2555 13.5398 15.2019 13.3967 15.184 13.2689C15.1559 13.1028 15.161 13.0696 15.2274 12.8217C15.2964 12.5611 15.3015 12.5534 15.3756 12.5457C15.552 12.5278 15.7743 12.4537 16.0068 12.3336C16.1755 12.2493 16.2598 12.2186 16.2726 12.2365C16.2828 12.2544 16.2905 12.3822 16.293 12.5253C16.293 12.7527 16.2828 12.8166 16.201 13.0773C15.9991 13.7161 15.9787 13.8566 16.0426 14.1428C16.0988 14.4086 16.1218 14.4469 16.3365 14.6462C16.684 14.9682 16.937 15.0934 17.4532 15.1957C17.6627 15.2391 17.6755 15.2468 17.6831 15.3106C17.6959 15.4129 17.655 15.4435 17.4761 15.4614C17.2615 15.4819 16.9344 15.5892 16.7836 15.6863C16.6252 15.7911 16.5026 15.9801 16.4387 16.2204C16.3697 16.4708 16.3722 16.6088 16.4489 16.8515C16.4949 16.9997 16.5409 17.0841 16.6278 17.1837C16.776 17.3524 16.8245 17.3549 17.0315 17.2093C17.3228 17.0023 17.5758 16.9435 17.9642 16.987C18.2044 17.0125 18.5085 17.0764 18.5775 17.1147C18.598 17.125 18.5111 17.1326 18.3859 17.1326C18.115 17.1326 18.0179 17.1582 17.4072 17.3958C16.845 17.6156 16.7325 17.6335 16.4591 17.5491C16.3032 17.5031 16.2496 17.4699 16.132 17.3549C16.0554 17.2783 15.9838 17.2169 15.9736 17.2169C15.9659 17.2169 15.9429 17.2681 15.925 17.3319C15.8842 17.4776 15.902 17.7127 15.9634 17.843C16.0273 17.9733 16.1959 18.142 16.3313 18.211C16.5358 18.3158 17.0724 18.3209 17.2717 18.2161C17.3254 18.188 17.4378 18.1139 17.5221 18.0474C17.6576 17.9401 17.839 17.8302 17.8799 17.8302C17.8876 17.8302 17.8595 17.8916 17.816 17.9657C17.7572 18.0704 17.7394 18.1343 17.7394 18.2416C17.7394 18.487 17.862 18.6428 18.0792 18.6658C18.1942 18.6786 18.1968 18.6786 18.2095 18.5943C18.2939 18.0858 18.3041 18.0628 18.4881 17.958C18.8024 17.7766 19.2726 17.7587 19.6942 17.9094C19.8859 17.9784 19.9549 17.9912 20.121 17.9861L20.3177 17.981L20.5017 18.257C20.6039 18.4077 20.7368 18.5994 20.7956 18.6786C20.8543 18.7604 20.9387 18.9137 20.9847 19.0236C21.0281 19.1335 21.0945 19.2663 21.1303 19.32L21.1968 19.4146L21.1814 19.8822C21.161 20.5031 21.1405 20.5798 20.9233 20.7868C20.7445 20.958 20.5911 21.05 20.4787 21.0551C20.4404 21.0577 20.3177 21.0423 20.2053 21.0244C20.0928 21.0066 19.9549 20.9887 19.8986 20.9887C19.799 20.9861 19.7964 20.9887 19.7888 21.0858C19.7785 21.2008 19.8705 21.5176 19.9421 21.6173C20.006 21.7093 20.1618 21.7962 20.3842 21.8677C20.4838 21.8984 20.5733 21.9342 20.586 21.9444C20.6218 21.9801 20.4174 22.0926 20.2436 22.1335C20.1286 22.1616 20.0187 22.1692 19.8807 22.1565C19.6968 22.1437 19.6712 22.1309 19.4463 21.9904L19.2087 21.8396L19.1525 21.906C19.0733 21.9955 18.9889 22.2766 18.9736 22.5091C18.9608 22.6675 18.9685 22.734 19.017 22.8745C19.0886 23.0892 19.1729 23.1888 19.4131 23.3396C19.5332 23.4137 19.5971 23.4674 19.5894 23.4904C19.5818 23.5083 19.5332 23.5543 19.4821 23.59C19.0579 23.8813 18.4114 23.8379 17.9284 23.4827C17.7445 23.3473 17.586 22.9359 17.6448 22.7442C17.6908 22.596 17.8365 22.4043 18.0383 22.2306C18.184 22.1054 18.23 22.0466 18.2709 21.9393C18.4012 21.5917 18.4037 21.3439 18.2836 21.119C18.2121 20.9836 17.4199 20.1735 17.2743 20.0841C17.2334 20.0611 17.2027 20.033 17.2027 20.0202C17.2027 20.0074 17.0315 19.8209 16.822 19.6037C16.6124 19.389 16.408 19.1616 16.3697 19.1028C16.3032 19.0031 15.8637 18.4052 15.8254 18.3617C15.8177 18.3515 15.7794 18.3388 15.7411 18.3311C15.6848 18.3209 15.6567 18.3362 15.5954 18.4129L15.5213 18.5074L15.4523 18.4435C15.3731 18.372 14.9489 17.8098 14.7547 17.521C14.6831 17.4163 14.563 17.2042 14.4838 17.0457C14.4046 16.8873 14.3305 16.7544 14.3203 16.7468C14.3101 16.7416 14.2359 16.7749 14.1567 16.8234C14.0111 16.9077 14.0085 16.9077 13.9804 16.8541C13.9651 16.826 13.6865 16.3916 13.3646 15.8907C13.04 15.3899 12.7155 14.8762 12.6414 14.751C12.3961 14.3294 11.7394 13.0798 11.6959 12.9495C11.6371 12.7706 11.5809 12.7093 11.4736 12.7093C11.425 12.7093 11.3509 12.7246 11.3075 12.7425C11.2129 12.7808 10.96 13.09 10.8859 13.2561C10.8552 13.32 10.8118 13.4171 10.7862 13.4733C10.707 13.6522 10.6814 13.8771 10.6993 14.2629C10.7095 14.4597 10.7325 14.6871 10.7504 14.7638C10.8373 15.1369 10.96 15.4921 11.1133 15.7936C11.2027 15.975 11.2666 16.1181 11.2538 16.1156C11.2411 16.1105 11.0238 15.9239 10.7734 15.6991C10.5204 15.4767 10.2905 15.2825 10.2598 15.2672C10.2291 15.2544 10.1627 15.2519 10.1116 15.2595C10.0375 15.2749 10.0043 15.3004 9.94293 15.3975C9.76405 15.6786 9.72572 16.0134 9.81516 16.504C9.88416 16.895 10.0963 17.3473 10.3825 17.7255C10.4617 17.8328 10.5256 17.9222 10.5204 17.9273C10.5153 17.9324 10.3825 17.8941 10.2215 17.8405C9.96848 17.7587 9.89949 17.7459 9.67206 17.7434C9.33986 17.7408 9.32964 17.7485 9.32964 18.0244C9.3322 18.3464 9.44463 18.6939 9.62095 18.9112C9.6644 18.9674 9.84838 19.1616 10.0298 19.3379C10.2087 19.5168 10.3543 19.6675 10.3543 19.6752C10.3543 19.6803 10.2317 19.6701 10.0809 19.6497C9.77428 19.6113 9.18143 19.6215 9.07155 19.665C9.00767 19.6905 9 19.7059 9 19.8234C9 19.9895 9.09199 20.1761 9.31431 20.4572C9.56218 20.774 10.0043 21.1548 10.247 21.2646C10.3058 21.2902 10.3543 21.3209 10.3543 21.3311C10.3543 21.3413 10.1525 21.3592 9.90715 21.3745C9.48552 21.4001 9.44974 21.4052 9.29898 21.4793C9.2121 21.5227 9.10733 21.5866 9.06388 21.6224C8.99744 21.6761 8.99233 21.6914 9.01533 21.7425C9.03066 21.7757 9.06644 21.8549 9.09455 21.9188C9.17632 22.1028 9.37053 22.3175 9.65673 22.5449C9.95571 22.7825 10.1167 22.8694 10.3697 22.9282C10.6303 22.9921 10.6303 22.9921 10.5843 23.0151C10.5639 23.0278 10.4566 23.056 10.3492 23.079C10.1959 23.1122 10.0988 23.1556 9.90204 23.2783C9.66951 23.4239 9.39608 23.6437 9.35009 23.7229C9.31942 23.7791 9.46252 23.9146 9.80494 24.1522C10.109 24.3618 10.339 24.4742 10.4719 24.4742C10.5383 24.4742 10.8143 24.5764 10.8143 24.5994C10.8143 24.6096 10.776 24.6556 10.7274 24.7016C10.6533 24.7732 10.6252 24.7859 10.5537 24.7757C10.4157 24.7527 10.3569 24.7911 10.2879 24.952C10.2521 25.0338 10.1831 25.1309 10.1371 25.1718C10.0886 25.2101 10.0375 25.2842 10.0196 25.3353C9.99148 25.4248 9.99404 25.4324 10.0579 25.4836C10.109 25.5244 10.1244 25.5602 10.1244 25.6318C10.1244 25.6829 10.1167 25.7263 10.109 25.7263C10.1014 25.7263 10.017 25.6905 9.91993 25.6497C9.71806 25.5602 9.70017 25.5577 9.67973 25.6139C9.65162 25.688 9.71806 26.1914 9.77172 26.3217C9.83816 26.4776 10.0554 26.6769 10.3467 26.8532C10.4693 26.9273 10.6227 27.0372 10.6865 27.0985C10.7504 27.1573 10.8348 27.2186 10.8731 27.2314C10.9216 27.2493 10.96 27.3004 11.0034 27.3975C11.0417 27.4819 11.1184 27.5841 11.2053 27.6684C11.2871 27.7451 11.3509 27.8319 11.3586 27.8728C11.3765 27.9572 11.4404 28.0261 11.5043 28.0261C11.5554 28.0261 11.563 28.044 12.0741 29.2527C12.3475 29.8967 12.7615 30.8652 13.2087 31.9026L13.3211 32.1633L13.27 32.2553C13.2266 32.337 13.224 32.3575 13.2572 32.4623C13.2751 32.5236 13.3262 32.6488 13.3697 32.7382C13.431 32.8711 13.4617 32.9069 13.5204 32.9197C13.5894 32.935 13.5945 32.9427 13.6099 33.1267C13.6303 33.3362 13.6917 33.5074 13.776 33.5815C13.8169 33.6198 13.8296 33.6607 13.8296 33.7604C13.8296 33.8856 13.8373 33.9009 13.9549 34.0159C14.0238 34.0849 14.0852 34.1692 14.0928 34.2076C14.1005 34.2434 14.1235 34.32 14.1465 34.3762C14.1669 34.4324 14.1848 34.5219 14.1874 34.5755C14.1874 34.665 14.1695 34.6931 14.0264 34.8311C13.8986 34.9563 13.8526 35.0253 13.8041 35.1505C13.7709 35.2399 13.7453 35.3549 13.7479 35.4035C13.753 35.5159 13.8501 35.6974 13.9267 35.7306C13.9753 35.751 13.983 35.774 13.983 35.8967C13.983 36.1164 14.0392 36.2008 14.2589 36.3081C14.4404 36.395 14.4506 36.4052 14.4915 36.5304C14.517 36.6045 14.5579 36.6863 14.5835 36.7144C14.6422 36.7808 14.862 36.883 14.9923 36.906C15.1405 36.9342 15.2325 37.0491 15.2351 37.2076C15.2351 37.3532 15.2862 37.4836 15.3705 37.5628C15.4037 37.596 15.5213 37.7084 15.6337 37.8158C15.8177 37.9921 15.8484 38.0125 15.9864 38.0381C16.2572 38.0917 16.3441 38.0815 16.4336 37.9793C16.5026 37.9001 16.5128 37.8694 16.5128 37.7442C16.5128 37.6675 16.5 37.527 16.4821 37.4376C16.4566 37.297 16.4591 37.2485 16.4974 37.0977C16.5434 36.9239 16.5434 36.9188 16.4923 36.8192C16.4131 36.6684 16.3978 36.6377 16.3313 36.4972C16.2981 36.4256 16.2675 36.3617 16.2623 36.3515C16.2572 36.3413 16.339 36.2902 16.4412 36.2391C16.5434 36.188 16.7223 36.0832 16.8399 36.0091C16.9574 35.9324 17.121 35.8353 17.2027 35.7945C17.3177 35.7357 17.3637 35.6974 17.3918 35.6309C17.4123 35.5849 17.4429 35.5364 17.4608 35.5236C17.5145 35.4904 17.747 35.4137 17.7956 35.4112C17.8186 35.4112 17.8697 35.383 17.9106 35.3498C17.9591 35.3089 18.0281 35.2859 18.1252 35.2757C18.2044 35.2681 18.3577 35.2272 18.4676 35.1837L18.6644 35.1045L19.5256 35.0943C20.5426 35.0841 20.6039 35.079 20.7394 34.9844C20.9566 34.8311 20.954 34.6343 20.7291 34.2945C20.6601 34.1897 20.6065 34.0926 20.6141 34.0824C20.6192 34.0721 20.6908 34.0568 20.7726 34.0517C20.8543 34.044 20.9872 34.0083 21.0664 33.9725C21.1942 33.9163 21.2274 33.8856 21.3271 33.7297C21.391 33.6301 21.4574 33.4921 21.4804 33.4205C21.5162 33.2979 21.5162 33.2902 21.4702 33.2646C21.4446 33.2519 21.2862 33.2391 21.1201 33.2391C20.8543 33.2391 20.8058 33.2314 20.7189 33.1803C20.4787 33.0449 20.4455 32.8379 20.6141 32.5108C20.6678 32.4035 20.7445 32.2885 20.7828 32.2553C20.8697 32.1837 21.0792 32.102 21.2479 32.079C21.4063 32.056 21.7513 32.125 21.9148 32.2118C22.1627 32.3473 22.3697 32.6616 22.4719 33.0628C22.5741 33.4691 22.5026 33.6428 22.1346 33.906C21.6312 34.2663 21.4906 34.4273 21.4293 34.7238C21.4089 34.826 21.3731 34.9307 21.3526 34.9537C21.3296 34.9793 21.2249 35.0483 21.1175 35.1122C21.0102 35.1761 20.816 35.3013 20.6857 35.3907C20.0136 35.8532 19.6329 36.0985 19.5486 36.1241C19.4744 36.1497 19.4387 36.1471 19.3646 36.1164C19.2394 36.0653 19.2036 35.981 19.2368 35.8175C19.2802 35.613 19.2572 35.544 19.1422 35.5108C19.0528 35.4827 19.0298 35.4878 18.8458 35.5747C18.7359 35.6284 18.6158 35.6999 18.5801 35.7382C18.5417 35.7766 18.483 35.8277 18.4472 35.8507C18.3066 35.9478 18.1789 36.3592 18.207 36.6224C18.2223 36.7834 18.276 36.8933 18.3935 37.0287C18.4421 37.0798 18.4804 37.1335 18.4804 37.1437C18.4804 37.1565 18.4267 37.2025 18.3629 37.2485C17.9208 37.5679 17.9182 38.1812 18.3577 38.866C18.4216 38.9708 18.4319 39.004 18.4165 39.0909C18.3859 39.2672 18.4497 39.4231 18.5494 39.4231C18.5954 39.4231 18.9634 39.0577 19.1065 38.866C19.2112 38.7255 19.247 38.705 19.247 38.7791C19.247 38.8047 19.2905 38.9171 19.3467 39.0296C19.4259 39.1905 19.4796 39.2621 19.6201 39.3873C19.8399 39.5815 19.9216 39.625 20.1107 39.6428C20.3612 39.6709 20.5886 39.6173 20.7802 39.487C20.8722 39.4256 20.977 39.3694 21.0128 39.3592C21.0741 39.3439 21.0869 39.3541 21.138 39.4563C21.2683 39.7169 21.7283 40.1207 21.9761 40.1897C22.1039 40.2229 22.4719 40.2229 22.5613 40.1871C22.5997 40.1692 22.6508 40.1539 22.6712 40.1514C22.7734 40.136 22.9472 40.0773 23.0238 40.0313C23.1031 39.9827 23.1082 39.9827 23.1669 40.0287C23.2002 40.0543 23.3203 40.1846 23.4327 40.32C23.6576 40.5883 23.8262 40.7468 23.9157 40.7672C23.9514 40.7774 24.0128 40.7595 24.0843 40.7186C24.2146 40.642 24.5366 40.3072 24.6644 40.1181C24.7129 40.0466 24.7666 39.9853 24.7819 39.9853C24.7973 39.9853 24.8867 40.021 24.9813 40.0619C25.1806 40.1539 25.4233 40.2152 25.5869 40.2152C25.7428 40.2152 26.0085 40.1309 26.1721 40.0261C26.3509 39.9137 26.6422 39.6224 26.7419 39.4563C26.8365 39.2979 26.8288 39.2979 27.1303 39.4716C27.3296 39.5866 27.3424 39.5892 27.5801 39.5968C27.9327 39.6096 28.0017 39.5841 28.2777 39.3362C28.5511 39.0883 28.6022 39.0168 28.6763 38.7945C28.707 38.7025 28.7453 38.6335 28.7606 38.6386C28.776 38.6437 28.8015 38.6922 28.822 38.7459C28.8399 38.7996 28.8731 38.8635 28.8935 38.8865C28.914 38.9094 28.9319 38.9401 28.9319 38.9554C28.9319 39.0117 29.3049 39.372 29.3612 39.372C29.4225 39.372 29.425 39.3592 29.4174 39.1215C29.4148 38.9989 29.4276 38.9631 29.5707 38.7255C29.7726 38.3882 29.8109 38.2578 29.8109 37.9026C29.8135 37.6471 29.8058 37.6113 29.7445 37.4912C29.7061 37.4197 29.6192 37.297 29.5477 37.2204L29.4199 37.0798L29.4864 36.9827C29.5681 36.8626 29.6729 36.533 29.6729 36.4001C29.6729 36.2698 29.5835 36.0142 29.4915 35.8813C29.4506 35.82 29.3663 35.7306 29.3049 35.682C29.1133 35.5236 28.7555 35.4367 28.6405 35.521C28.5971 35.5543 28.5971 35.5594 28.6354 35.636C28.6584 35.6795 28.6865 35.7229 28.7019 35.7306C28.7351 35.751 28.7351 35.9631 28.7019 36.027C28.6584 36.1062 28.5281 36.1599 28.4054 36.1445C28.2598 36.1292 28.155 36.0704 27.7666 35.7919C27.4625 35.5747 26.8646 35.1735 26.5656 34.9895C26.4404 34.9129 26.4404 34.9129 26.4225 34.7442C26.3944 34.4427 26.2359 34.2178 25.891 33.9827C25.4872 33.7042 25.3339 33.4793 25.362 33.2008C25.3927 32.912 25.7044 32.3754 25.9421 32.2093C26.1235 32.0815 26.563 32.056 26.8722 32.1556C27.0332 32.2093 27.1789 32.3575 27.276 32.5645C27.3424 32.705 27.3526 32.7536 27.3424 32.8813C27.322 33.1548 27.1916 33.2289 26.77 33.2059C26.4148 33.188 26.3918 33.2059 26.4072 33.4486C26.4199 33.5943 26.4327 33.6403 26.4966 33.7195C26.6704 33.9393 26.9438 34.0568 27.2734 34.0568H27.4676L27.4472 34.1641C27.437 34.2255 27.3935 34.3788 27.3501 34.5066C27.3066 34.6369 27.2709 34.7928 27.2709 34.8541C27.2709 35.056 27.368 35.0892 27.8254 35.0483C28.2112 35.0125 28.3697 35.033 28.4233 35.1275C28.4591 35.1888 28.4872 35.2016 28.6661 35.2272C28.8501 35.2527 30.1712 35.5313 30.391 35.59C30.4421 35.6054 30.5417 35.6156 30.6158 35.6156C30.8842 35.6156 31.1448 35.7127 31.9165 36.0985C32.54 36.4103 32.7291 36.4844 32.9106 36.4844C33.069 36.4844 33.3118 36.3694 33.4242 36.2442L33.5085 36.1497L33.6848 36.1752C33.8637 36.2033 34.1397 36.1829 34.2802 36.1292C34.316 36.1164 34.4361 36.0296 34.5485 35.9401C34.7146 35.8047 34.7888 35.7638 34.9472 35.7178C35.1721 35.6488 35.2334 35.5875 35.2589 35.4009C35.2692 35.337 35.287 35.2834 35.2998 35.2834C35.3152 35.2834 35.4199 35.1888 35.5324 35.0713C35.7291 34.872 35.8262 34.7263 35.9182 34.4836C35.9489 34.4094 35.9693 34.389 36.023 34.389C36.0971 34.389 36.138 34.3123 36.138 34.1744C36.138 34.1207 36.1584 34.0721 36.1916 34.0415C36.2555 33.9853 36.3169 33.8549 36.3169 33.7783C36.3169 33.7502 36.276 33.6863 36.2274 33.6377C36.1584 33.5687 36.138 33.5253 36.138 33.4563C36.138 33.4052 36.1227 33.3388 36.1022 33.3081C36.0818 33.2774 36.0485 33.1778 36.0255 33.0883C35.9566 32.8149 35.839 32.6079 35.6218 32.3805C35.5145 32.2681 35.3918 32.1582 35.3535 32.1377C35.3152 32.1198 35.2768 32.0943 35.2692 32.0866C35.2283 32.0304 34.8935 31.8336 34.7606 31.7825C34.5971 31.7212 34.5894 31.7033 34.7095 31.642C34.776 31.6062 34.7836 31.5909 34.7709 31.5066C34.7658 31.4554 34.753 31.2434 34.7428 31.0389L34.7274 30.6658L34.638 30.5943C34.5383 30.5151 34.5588 30.5176 33.9761 30.5278L33.6388 30.5355L33.5622 30.6147L33.483 30.6965L33.4753 31.1616C33.4676 31.6164 33.4676 31.6267 33.5264 31.688L33.5852 31.7519L33.4497 31.7825C33.1916 31.8439 32.816 32.0687 32.5911 32.2987C32.4276 32.4648 32.2385 32.8175 32.1899 33.05C32.1695 33.1445 32.1312 33.2442 32.1031 33.2749C32.0622 33.3183 32.0494 33.3669 32.0494 33.4614C32.0494 33.5432 32.0366 33.602 32.0136 33.6198C31.9651 33.6607 31.9319 33.9239 31.9702 33.9623C31.9855 33.9776 31.9983 34.0568 31.9983 34.1386C31.9983 34.2715 32.006 34.2893 32.0698 34.3302C32.1823 34.3992 32.2564 34.4733 32.2819 34.5398C32.3152 34.6241 32.2232 34.7979 32.0903 34.9052L31.9855 34.9895H31.523C31.1934 34.9895 31.0503 34.9793 31.0221 34.9589C31.0017 34.941 30.7436 34.8464 30.4497 34.7519C29.793 34.5347 29.4097 34.3609 29.2973 34.2229C29.2232 34.1335 29.098 33.8779 29.1286 33.8779C29.1337 33.8779 29.1746 33.9009 29.2155 33.9316C29.31 33.998 29.3765 33.9776 29.4199 33.8703C29.4378 33.8243 29.4557 33.7834 29.4583 33.7783C29.4634 33.7732 29.5017 33.8115 29.5426 33.86C29.6448 33.975 29.7675 34.0313 29.908 34.0287C30.1482 34.0236 30.2044 33.9623 30.1175 33.7962C30.0715 33.7093 29.9744 33.3362 29.9949 33.3183C30 33.3132 30.0997 33.3515 30.2146 33.4052C30.4114 33.4972 30.4446 33.5048 30.6567 33.5048C30.8254 33.5023 30.9123 33.4921 30.9838 33.4563C31.1448 33.3796 31.4106 33.0296 31.4106 32.8967C31.4106 32.8711 31.3748 32.8532 31.316 32.843C31.0017 32.7945 30.9378 32.7766 30.8688 32.7101C30.7538 32.6003 30.7385 32.5108 30.7819 32.2502C30.8407 31.9231 30.8356 31.4094 30.7743 31.2331C30.6695 30.9393 30.3731 30.5866 30.1124 30.4563C29.9336 30.3669 29.7189 30.3004 29.6014 30.3004C29.517 30.3004 29.517 30.2979 29.5349 30.2161C29.5451 30.1727 29.5554 30.0985 29.5554 30.0577C29.5579 29.958 29.5017 29.9503 29.2257 30.0066C29.0315 30.0474 29.0008 30.0474 28.8143 30.0091C28.4847 29.9427 28.27 29.7996 28.4463 29.7638C28.5562 29.7408 28.6763 29.6616 28.6763 29.613C28.6763 29.5875 28.6252 29.5083 28.5613 29.4367C28.4974 29.3677 28.4182 29.2476 28.3825 29.1735C28.3211 29.0406 28.3186 29.0151 28.3186 28.5244C28.3211 28.0006 28.3569 27.6531 28.4259 27.4895C28.454 27.4205 28.4872 27.3899 28.5562 27.3694C28.6354 27.3464 28.6635 27.3515 28.7964 27.4154C29.1133 27.5713 29.287 27.6428 29.3382 27.6428C29.3867 27.6428 29.3918 27.6582 29.3944 27.8268C29.402 28.1309 29.4148 28.4273 29.4378 28.7876C29.4583 29.0636 29.471 29.1428 29.5119 29.1965C29.54 29.2348 29.6985 29.3396 29.8671 29.4316C30.1227 29.5721 30.1865 29.5977 30.2836 29.5926C30.345 29.59 30.4037 29.5773 30.4114 29.5645C30.4191 29.5543 30.4906 29.5108 30.5673 29.4725C30.7896 29.36 31.0094 29.1939 31.0298 29.125C31.04 29.0892 31.0477 29.0125 31.0503 28.9512C31.0528 28.8924 31.063 28.8439 31.0733 28.8439C31.086 28.8439 31.1346 28.9614 31.1831 29.1045C31.2828 29.406 31.3824 29.5747 31.4796 29.613C31.6457 29.6769 32.2359 29.8405 32.3049 29.8405C32.3714 29.8405 32.3969 29.8098 32.563 29.5594C32.6652 29.406 32.7547 29.2783 32.7649 29.2783C32.816 29.2783 32.8671 29.0687 32.8518 28.9256L32.8365 28.78L32.9693 28.9716C33.23 29.3447 33.2376 29.3524 33.3731 29.3498C33.4395 29.3473 33.6286 29.3498 33.7947 29.3524C33.9966 29.3575 34.109 29.3498 34.132 29.3294C34.1525 29.3115 34.2598 29.1224 34.3722 28.9077C34.6022 28.4657 34.6048 28.4503 34.4489 28.228C34.408 28.1667 34.3416 28.0721 34.3058 28.0185C34.1831 27.8396 34.27 27.8882 34.5332 28.1462C34.6789 28.2868 34.822 28.4171 34.8552 28.4324C34.8961 28.4554 35.0187 28.4554 35.3407 28.435C35.7572 28.4095 35.77 28.4069 35.8262 28.3405C35.8799 28.2817 35.885 28.2561 35.8697 28.1411C35.862 28.0696 35.8646 27.9597 35.8799 27.8958C35.8927 27.8345 35.9106 27.6812 35.9208 27.5585L35.9387 27.3311L36.0179 27.349C36.2274 27.3975 36.3705 27.3745 36.6439 27.2519C36.787 27.1854 36.9531 27.096 37.0094 27.05L37.1141 26.9657L37.1039 26.5951C37.0911 26.1709 37.063 26.0815 36.8995 25.9486C36.8126 25.8796 36.8049 25.8669 36.8458 25.8515C36.8714 25.8413 36.9404 25.8311 37.0017 25.8311C37.063 25.8285 37.1652 25.8081 37.2317 25.78C37.2981 25.7544 37.4182 25.711 37.5 25.6854C37.6942 25.6241 37.9549 25.4938 37.9855 25.4427C38.029 25.3711 37.9549 25.2434 37.7606 25.0491C37.6635 24.9495 37.4949 24.8038 37.3901 24.7272C37.2853 24.648 37.1831 24.5662 37.1652 24.5432C37.1269 24.4972 37.1499 24.4921 37.4463 24.4614C37.6508 24.4435 37.8399 24.3669 38.0494 24.2186C38.2794 24.0577 38.5656 23.7638 38.5656 23.6897C38.5656 23.6488 38.4966 23.5824 38.3049 23.4367C37.9651 23.1812 37.7785 23.0943 37.5128 23.0662C37.2087 23.0355 37.2036 23.0074 37.4949 22.9563C37.9114 22.8822 38.5068 22.4759 38.632 22.182C38.6525 22.136 38.6806 22.0977 38.6934 22.0977C38.7291 22.0977 38.7853 21.9776 38.8313 21.8038C38.8697 21.6556 38.8697 21.648 38.8211 21.6071C38.6678 21.4793 38.2104 21.3847 37.7479 21.3822L37.454 21.3796L37.5511 21.3234C38.1899 20.9554 38.6269 20.567 38.8595 20.1633C38.9106 20.0738 38.9642 19.9972 38.977 19.987C38.9898 19.9793 39 19.9077 39 19.826V19.6752L38.8313 19.6445C38.6269 19.6062 38.563 19.6037 38.0417 19.6318L37.6329 19.6522L37.9165 19.3609C38.1695 19.1003 38.3612 18.8626 38.3612 18.8115C38.3612 18.8013 38.3842 18.7681 38.4123 18.7399C38.4583 18.6888 38.6244 18.1573 38.6601 17.9478C38.6729 17.8686 38.6652 17.8405 38.6295 17.8123C38.5528 17.7587 38.2692 17.774 37.8373 17.8558C37.6175 17.8967 37.4208 17.9324 37.4003 17.9324C37.3799 17.9324 37.4361 17.8456 37.5307 17.7357C37.6559 17.59 37.7453 17.4444 37.8756 17.1786C38.2257 16.4631 38.2641 16.2178 38.1184 15.6352C38.0673 15.4333 38.0417 15.3771 37.9753 15.3158C37.845 15.1982 37.7734 15.2263 37.4259 15.5355C36.9404 15.9674 36.5826 16.2459 36.5136 16.2459C36.506 16.2459 36.5852 16.0875 36.6925 15.8933C37.224 14.9248 37.27 14.7663 37.2726 13.9563L37.2751 13.4963L37.1678 13.2791C37.0451 13.0313 36.9685 12.952 36.6899 12.7859C36.4549 12.6454 36.4727 12.6377 36.3399 12.9623C36.1661 13.3865 35.9514 13.8106 35.5733 14.475C35.0826 15.3413 34.3569 16.4401 34.0962 16.7135L33.9072 16.9129L33.8203 16.8285C33.6899 16.7033 33.6669 16.7314 33.3807 17.3064C33.2198 17.6284 32.9412 18.0372 32.7266 18.2621C32.6167 18.3771 32.517 18.4691 32.5043 18.4691C32.4915 18.4691 32.4583 18.4282 32.4302 18.3796C32.3765 18.2902 32.3152 18.2698 32.2155 18.3055C32.1925 18.3158 32.0596 18.4614 31.9191 18.6301C31.1576 19.5423 30.7998 19.941 30.2836 20.452C29.6755 21.0526 29.5911 21.1624 29.5426 21.4205C29.5094 21.6096 29.5375 21.6914 29.7342 21.9801C29.8211 22.1054 29.9054 22.2306 29.9259 22.2612C29.9463 22.2893 30.0179 22.3967 30.0869 22.4989C30.2479 22.7391 30.2862 22.8336 30.2862 22.9972C30.2862 23.1684 30.1891 23.3473 30.0128 23.5031C29.8697 23.6284 29.7649 23.6871 29.5733 23.7434C29.3279 23.8149 28.9242 23.7868 28.7274 23.682C28.6073 23.6207 28.3722 23.4393 28.3722 23.4086C28.3697 23.3728 28.4923 23.2732 28.5409 23.2732C28.5997 23.2732 28.7913 23.079 28.8629 22.9461C28.9523 22.78 28.9702 22.6522 28.9344 22.3992C28.8859 22.0594 28.799 21.8141 28.7172 21.7834C28.6329 21.7502 28.5664 21.7987 28.5077 21.9367C28.4336 22.1028 28.3467 22.1488 28.1167 22.1488C27.9634 22.1488 27.6261 22.09 27.4881 22.0415C27.3986 22.0083 27.2453 21.9137 27.2453 21.8907C27.2453 21.8805 27.3296 21.8652 27.4319 21.8549C27.6721 21.8319 27.7947 21.7757 27.9302 21.6275C28.0707 21.4767 28.1371 21.326 28.1397 21.1727C28.1397 20.9836 28.0324 20.9376 27.7334 21.0014C27.4855 21.0526 27.0741 20.866 26.908 20.6258C26.7828 20.4469 26.7547 20.3243 26.7419 19.9077L26.7266 19.5193L26.9361 19.0926C27.1508 18.6531 27.2939 18.4154 27.46 18.2135C27.5111 18.1497 27.5724 18.0781 27.5928 18.0526C27.6261 18.0117 27.6567 18.0091 27.8279 18.0219C28.0094 18.0372 28.0451 18.0321 28.2547 17.9554C28.4642 17.8788 28.5128 17.8711 28.7785 17.8711C29.3024 17.8686 29.6397 18.0244 29.6985 18.2953C29.7905 18.7297 29.7853 18.7195 29.9208 18.6837C29.9974 18.6658 30.0358 18.6326 30.1022 18.5355C30.1763 18.4231 30.184 18.395 30.184 18.211C30.184 18.0091 30.184 18.0091 30.2504 18.0091C30.2888 18.0091 30.3552 18.0423 30.4063 18.0858C30.4523 18.1292 30.5647 18.1982 30.6516 18.2442C30.787 18.3132 30.8433 18.326 31.0451 18.3362C31.5204 18.3592 31.8245 18.2135 31.9855 17.8941C32.0928 17.6795 32.1082 17.4086 32.0213 17.2808C31.9881 17.2323 31.9472 17.1914 31.9293 17.1914C31.914 17.1914 31.8603 17.2476 31.8118 17.314C31.7632 17.383 31.6687 17.475 31.5997 17.521C31.4796 17.6028 31.4668 17.6054 31.2547 17.5951C31.0477 17.5849 31.0196 17.5773 30.6797 17.4163C30.3194 17.2451 30.2044 17.2067 29.8416 17.1275C29.7164 17.102 29.6499 17.0764 29.6652 17.0611C29.701 17.0253 30.1482 16.9793 30.3501 16.9921C30.5392 17.0048 30.7538 17.0841 30.9736 17.2221C31.0375 17.2604 31.109 17.2936 31.132 17.2936C31.1934 17.2936 31.3135 17.1403 31.4284 16.9154C31.523 16.7289 31.5256 16.7161 31.5256 16.4529C31.5256 16.2204 31.5153 16.1667 31.4668 16.0721C31.385 15.9163 31.2496 15.7732 31.0298 15.6122C30.8407 15.4716 30.8382 15.4691 30.5877 15.4435C30.4497 15.4307 30.3373 15.4103 30.3373 15.4026C30.3373 15.3924 30.3092 15.3439 30.276 15.2953L30.2172 15.2059L30.4497 15.1727C30.7308 15.1318 30.8433 15.096 30.9915 14.9938C31.0554 14.9529 31.1167 14.9171 31.1295 14.9171C31.1422 14.9171 31.2164 14.8941 31.293 14.8635C31.3901 14.8277 31.4923 14.7587 31.6252 14.6335C31.8756 14.3984 31.9089 14.314 31.9063 13.9205C31.9037 13.619 31.8884 13.5372 31.7198 12.8856C31.6763 12.7169 31.6329 12.4895 31.6227 12.3771L31.6073 12.1778L31.6687 12.1957C31.7019 12.2059 31.7811 12.2416 31.845 12.2723C31.9089 12.303 31.9957 12.3362 32.0366 12.3464C32.0801 12.3566 32.1899 12.4001 32.2845 12.441C32.3765 12.4819 32.4838 12.5151 32.517 12.5151C32.6652 12.5151 32.6831 12.5457 32.7521 12.9342C32.7777 13.0696 32.7879 13.2076 32.7777 13.274C32.7521 13.4427 32.6525 13.7186 32.5221 13.9716C32.2947 14.4214 32.3049 14.5773 32.5988 15.1599C32.816 15.5917 32.8211 15.6224 32.7393 15.9674C32.7138 16.0824 32.6959 16.1871 32.7036 16.1999C32.7266 16.2357 32.8876 16.2229 33.0281 16.1692C33.2095 16.1003 33.4676 15.8422 33.4983 15.6939C33.5315 15.533 33.5136 15.2493 33.4574 15.0704C33.4293 14.981 33.4089 14.9018 33.414 14.8967C33.4191 14.8941 33.4779 14.9018 33.5443 14.9197C33.6184 14.9376 33.7666 14.9452 33.9455 14.9376C34.1882 14.9248 34.2266 14.9273 34.2368 14.9657C34.2649 15.0551 34.3646 15.2289 34.3952 15.2416C34.4412 15.2621 34.6124 15.0909 34.6916 14.9452C34.7274 14.8762 34.7709 14.7638 34.7862 14.6897C34.8245 14.5134 34.7734 14.3754 34.6252 14.2553C34.5256 14.1709 34.5051 14.1658 34.2879 14.1505C34.0554 14.1352 34.017 14.125 33.9353 14.056C33.8969 14.0227 33.8969 14.01 33.9327 13.9026C33.9557 13.8388 34.017 13.7416 34.0707 13.6854C34.2189 13.5347 34.3211 13.3532 34.3543 13.1948C34.3824 13.0721 34.3799 13.0236 34.3416 12.883C34.293 12.6939 34.1601 12.4793 34.0426 12.3924C33.9353 12.3132 33.7104 12.2084 33.6439 12.2084C33.5366 12.2084 33.1175 12.0321 32.9821 11.9299C32.908 11.8737 32.7853 11.7536 32.7087 11.6667C32.5119 11.4342 32.2334 11.1684 32.1388 11.1224C31.9881 11.0508 31.7019 11.0892 31.4617 11.2118C31.3518 11.2681 30.7589 11.6769 30.6721 11.7561C30.5775 11.843 30.5136 12.0142 30.4983 12.2186C30.4855 12.3924 30.4932 12.4307 30.6158 12.7987C30.8637 13.5474 30.925 13.9486 30.8254 14.1633C30.7589 14.3064 30.6107 14.4674 30.4983 14.521C30.4242 14.5568 30.3475 14.567 30.1354 14.5619C29.9872 14.5594 29.862 14.5517 29.8543 14.5466C29.8492 14.5389 29.9259 14.3677 30.0256 14.1658C30.3015 13.6037 30.3271 13.3711 30.1405 13.1054C30.0077 12.9137 29.701 12.7451 29.4506 12.7246C29.3637 12.7195 29.2896 12.7042 29.2896 12.6914C29.2896 12.6786 29.2666 12.6582 29.2385 12.6428C29.1721 12.6071 28.983 12.6377 28.983 12.6837C28.983 12.7042 28.9651 12.7195 28.9421 12.7195C28.8884 12.7195 28.9165 12.5968 28.9855 12.533C29.0417 12.4819 29.0417 12.487 29.0085 12.3413C28.9881 12.2621 28.9906 12.2161 29.0136 12.1752C29.0341 12.1369 29.0417 12.0193 29.0392 11.8123C29.0315 11.5389 29.0264 11.5006 28.9779 11.4597C28.9293 11.4188 28.9216 11.4188 28.845 11.4648C28.7785 11.5031 28.7402 11.5083 28.5997 11.4929C28.5077 11.4827 28.4131 11.4648 28.3901 11.4546C28.362 11.4444 28.3186 11.4572 28.2751 11.4878C28.2061 11.5364 28.2036 11.544 28.1959 11.8226C28.1908 12.073 28.1959 12.1164 28.2393 12.1778C28.2777 12.2314 28.2828 12.2595 28.2623 12.2953C28.2342 12.3464 28.2777 12.5406 28.316 12.5406C28.3288 12.5406 28.3518 12.5738 28.3646 12.6147C28.385 12.6709 28.3825 12.7016 28.3569 12.7374C28.3211 12.7808 28.3211 12.7808 28.3186 12.7246C28.3186 12.6709 28.3083 12.6684 28.1295 12.6684C27.9378 12.6684 27.6772 12.7348 27.414 12.8473C27.0511 13.0006 26.9054 13.3686 27.046 13.7723C27.1022 13.941 27.3475 14.406 27.4267 14.4955C27.4523 14.5261 27.4727 14.6003 27.4804 14.6795C27.4881 14.8047 27.483 14.8123 27.437 14.7996C27.4089 14.7919 27.1738 14.6692 26.9131 14.5287C25.7913 13.9205 25.5434 13.757 25.4642 13.5704C25.4131 13.4427 25.4438 13.0134 25.5128 12.9137C25.5409 12.8754 25.5664 12.814 25.569 12.7808C25.569 12.7476 25.5792 12.7195 25.5894 12.7195C25.6431 12.7195 25.9651 12.027 26.0571 11.7101C26.2973 10.8745 26.1082 10.4401 25.362 10.1284C25.2521 10.0824 25.0988 10.0313 25.0221 10.0134C24.9455 9.99548 24.8279 9.95715 24.7589 9.92904L24.6388 9.87282L24.5673 9.92649C24.529 9.95459 24.483 10.0083 24.4651 10.044C24.4421 10.09 24.4114 10.113 24.3731 10.113C24.322 10.113 24.3118 10.0977 24.299 10.0083C24.2888 9.92649 24.3015 9.87538 24.3603 9.76294C24.4395 9.61473 24.4523 9.49974 24.4089 9.34131C24.3833 9.25187 24.3859 9.24165 24.4651 9.1701L24.5494 9.09344L24.5443 8.63092C24.5417 8.23228 24.5341 8.15817 24.4957 8.11729C24.4446 8.05851 24.3399 8.05596 24.2709 8.10707C24.1968 8.16328 23.724 8.16073 23.7036 8.10707C23.6857 8.06618 23.632 8.06107 23.5528 8.09173ZM24.4753 13.918L24.6797 13.9384L25.0426 14.1965C25.4259 14.4725 25.73 14.6641 26.0443 14.8302L26.2359 14.9299L26.1261 14.9376C26.0647 14.9427 25.891 14.9222 25.7402 14.8941C25.4387 14.8353 25.2879 14.8277 25.2649 14.866C25.2087 14.9554 25.5664 15.3362 25.8271 15.4665L25.9804 15.5432L25.6942 15.5508C25.4668 15.556 25.408 15.5662 25.3952 15.5968C25.3518 15.7067 25.546 15.8754 25.8807 16.0159L26.0494 16.0875L25.983 16.1335C25.9446 16.1616 25.8654 16.2204 25.8066 16.2638C25.7479 16.3098 25.6865 16.3481 25.6738 16.3481C25.6584 16.3481 25.5613 16.389 25.4566 16.4401C25.2164 16.5551 24.9506 16.6215 24.6388 16.6445C24.506 16.6522 24.3807 16.6727 24.3654 16.6854C24.3475 16.7008 24.3322 16.7416 24.3348 16.78C24.3373 16.9231 24.5647 17.0125 24.9353 17.0125C25.0451 17.0125 25.0962 17.0227 25.1065 17.0483C25.1141 17.0662 25.0349 17.1939 24.9302 17.3294C24.7538 17.5543 24.4855 18.0423 24.4855 18.1318C24.4855 18.1522 24.4523 18.2391 24.4114 18.326C24.2964 18.5636 24.138 19.0645 24.0792 19.3635C24.0511 19.5117 24.0153 19.6701 23.9974 19.7186C23.9668 19.803 23.9642 19.7979 23.8697 19.4478C23.6039 18.4767 23.4046 17.9912 23.0238 17.3805L22.8322 17.0687L22.9855 17.0508C23.2538 17.0227 23.4404 16.9026 23.4736 16.7416L23.4915 16.6624L23.2283 16.6445C23.0852 16.6343 22.8986 16.6037 22.8118 16.5755C22.6278 16.5142 22.0196 16.2204 21.9327 16.1514C21.8586 16.09 21.8586 16.09 22.1729 15.9035C22.3978 15.7706 22.5792 15.5841 22.5332 15.5381C22.5077 15.5125 22.2981 15.5125 22.0707 15.5381L21.8918 15.5585L22.0886 15.4537C22.2291 15.3771 22.339 15.2902 22.4668 15.1548C22.7044 14.9043 22.6993 14.8788 22.4157 14.8813C22.2956 14.8813 22.0911 14.8916 21.9608 14.9069C21.8049 14.9248 21.7283 14.9222 21.7334 14.9069C21.7385 14.8916 21.9148 14.7817 22.1244 14.6616C22.592 14.3933 23.0826 14.0636 23.1721 13.9563C23.1848 13.9384 23.2487 13.9205 23.3126 13.9129C23.5221 13.895 24.2658 13.8975 24.4753 13.918ZM19.4029 27.4205C19.5026 27.487 19.523 27.5636 19.5818 28.0517C19.6635 28.7365 19.5945 29.1863 19.3595 29.4955C19.3058 29.567 19.3007 29.6054 19.3211 29.7434C19.3211 29.7561 19.3697 29.7638 19.4233 29.7638C19.5537 29.7638 19.569 29.7919 19.4821 29.8737C19.3237 30.027 19.0835 30.0577 18.6031 29.9912C18.4804 29.9733 18.3731 29.9657 18.3629 29.9759C18.3475 29.9887 18.3756 30.1318 18.4191 30.28C18.4319 30.3209 18.414 30.326 18.2964 30.326C18.1329 30.3285 17.9489 30.3873 17.7521 30.5074C17.4966 30.6607 17.3663 30.7962 17.2487 31.0364L17.1388 31.2536V31.6778C17.1388 31.9103 17.1491 32.2297 17.1618 32.3882L17.1848 32.6744L17.1107 32.7485C17.052 32.8072 16.9957 32.8302 16.8578 32.8532C16.546 32.9043 16.5383 32.9069 16.5383 32.9606C16.5383 33.0807 16.6099 33.1803 16.7581 33.2698C16.9676 33.395 17.075 33.4256 17.3177 33.4231C17.5043 33.4205 17.6397 33.3924 17.8748 33.303C17.9131 33.2876 17.9182 33.303 17.9182 33.4231C17.9182 33.4997 17.908 33.5713 17.8927 33.5866C17.8799 33.5994 17.839 33.6888 17.8032 33.7885C17.7394 33.9546 17.7394 33.9674 17.7802 33.998C17.8058 34.0159 17.8441 34.0313 17.8646 34.0313C17.9642 34.0287 18.2223 33.9571 18.3271 33.9035C18.3884 33.8728 18.4446 33.8575 18.4472 33.8703C18.4523 33.8856 18.4702 33.9163 18.4881 33.9393C18.5187 33.9801 18.529 33.9776 18.6337 33.9188C18.81 33.8166 18.8382 33.8268 18.8382 33.9904V34.1258L18.6669 34.205C18.5698 34.2485 18.368 34.3302 18.2121 34.3839C18.0588 34.4401 17.8748 34.5117 17.8032 34.5423C17.3714 34.7314 16.9625 34.8388 16.7632 34.8158C16.6303 34.7979 16.408 34.7084 16.2828 34.619C16.2138 34.5704 16.1141 34.3967 16.0375 34.1897C15.9787 34.0287 15.8177 33.9035 15.6772 33.9035C15.6388 33.906 15.5596 33.9265 15.5034 33.9546C15.4319 33.9878 15.345 34.0031 15.2223 34.0057C15.0434 34.0057 15.0434 34.0057 14.9796 33.9086C14.9284 33.8345 14.9131 33.7706 14.9029 33.6096L14.8901 33.4052L14.7956 33.3541C14.701 33.3055 14.6985 33.2979 14.6985 33.1624V33.0193L14.5068 32.8302C14.3535 32.6769 14.3152 32.6258 14.3152 32.5619C14.3152 32.4904 14.2743 32.1505 14.2487 32.0202C14.2411 31.9819 14.2104 31.9563 14.144 31.9384C14.0928 31.9231 14.0417 31.918 14.029 31.9256C14.0187 31.9333 14.0009 31.918 13.9932 31.8924C13.9549 31.7774 13.1269 30.0551 13.0963 30.0296C13.0784 30.0142 13.0707 29.9963 13.0784 29.9887C13.086 29.981 12.9864 29.7587 12.8586 29.4929C12.5009 28.757 12.3475 28.435 12.3475 28.4273C12.3475 28.4248 12.5009 28.4273 12.6899 28.4299C12.9761 28.4376 13.0451 28.4324 13.1167 28.3941C13.1652 28.3711 13.3799 28.1769 13.5945 27.9674C13.8066 27.7553 13.983 27.5917 13.983 27.602C13.983 27.6122 13.868 27.8013 13.7274 28.021C13.5358 28.3175 13.477 28.4324 13.4872 28.4708C13.5562 28.6905 13.8066 29.2195 13.8578 29.2578C13.9063 29.2885 14.006 29.3038 14.3075 29.3166L14.6959 29.3319L14.8492 29.1352C14.9361 29.0278 15.0051 28.9231 15.0051 28.9052C15.0051 28.8873 15.0204 28.8618 15.0383 28.8515C15.0562 28.8413 15.1022 28.7902 15.1431 28.7416C15.2274 28.642 15.2249 28.6215 15.1584 28.9359L15.1252 29.0917L15.2785 29.3192C15.3629 29.4444 15.4625 29.6054 15.4983 29.6795C15.5366 29.751 15.5801 29.8149 15.598 29.82C15.6158 29.8277 15.6823 29.8175 15.7462 29.7996C15.8101 29.7842 15.948 29.751 16.0528 29.728C16.2802 29.6769 16.4284 29.6003 16.5 29.4929C16.5281 29.4495 16.6022 29.2783 16.6635 29.1096C16.8629 28.5679 16.9267 28.4069 16.937 28.4171C16.9446 28.4222 16.9497 28.5474 16.9497 28.6931C16.9497 28.8464 16.9651 29.0151 16.9881 29.0917C17.0238 29.2246 17.0315 29.2323 17.2998 29.4112C17.4506 29.5108 17.5963 29.5926 17.6244 29.59C17.6704 29.5875 17.9974 29.4572 18.3296 29.3115C18.4216 29.2706 18.4216 29.2706 18.4625 29.0253C18.4855 28.8899 18.5085 28.6088 18.5187 28.3992C18.5392 27.8473 18.5545 27.7399 18.6082 27.7578C18.6363 27.7681 18.7002 27.7323 18.7871 27.6633C18.8612 27.602 18.9455 27.5355 18.9761 27.5151C19.0043 27.4946 19.063 27.4512 19.1014 27.4205C19.1934 27.3464 19.293 27.3464 19.4029 27.4205ZM22.4591 35.4316C22.4412 35.4571 22.3825 35.5491 22.3288 35.6411C22.2777 35.7331 22.1371 35.9376 22.0196 36.0985C21.7794 36.4282 21.5877 36.7425 21.5264 36.9009C21.4651 37.0645 21.4216 37.1054 21.322 37.0875C21.1712 37.0645 21.1635 37.044 21.2146 36.8217C21.2811 36.533 21.2939 36.5125 21.5392 36.2391C21.8126 35.935 22.4387 35.3549 22.4719 35.3754C22.4847 35.383 22.4796 35.4086 22.4591 35.4316ZM25.73 35.682C26.2104 36.0679 26.5145 36.3847 26.6422 36.6352C26.6627 36.6735 26.6857 36.7629 26.6959 36.8319C26.7087 36.9393 26.701 36.9674 26.6474 37.0313C26.5656 37.1309 26.5503 37.1156 26.3356 36.7578C26.1823 36.5023 25.868 36.05 25.5971 35.6922C25.3952 35.4265 25.4106 35.4239 25.73 35.682ZM23.4123 35.958C23.3969 36.0704 23.3535 36.2851 23.3203 36.4333C23.1593 37.113 23.0545 37.7263 22.9779 38.4112C22.9191 38.9631 22.9089 39.0142 22.8629 39.0142C22.7862 39.0142 22.6865 38.7689 22.6303 38.4418C22.592 38.2042 22.592 38.1761 22.6329 37.9563C22.6814 37.6982 22.8041 37.3175 23.1107 36.4716C23.4353 35.5773 23.4787 35.5057 23.4123 35.958ZM24.5622 35.8737C24.5622 35.8865 24.5826 35.9452 24.6107 36.0066C24.7385 36.2953 24.8152 36.4972 25.04 37.1232L25.2802 37.8004V38.0892C25.2777 38.475 25.2419 38.6974 25.1576 38.8175C25.04 38.9887 25.0554 39.0321 24.9583 38.2604C24.879 37.642 24.8356 37.3788 24.7513 37.0083C24.6491 36.5636 24.5111 35.8967 24.5111 35.8558C24.5111 35.8328 24.5238 35.8251 24.5366 35.8328C24.552 35.8405 24.5622 35.8583 24.5622 35.8737ZM20.6065 37.9001C20.6525 37.9333 20.7368 37.9537 20.8492 37.964C21.0383 37.9819 21.0486 37.9921 20.9872 38.1505C20.9617 38.2144 20.9591 38.2169 20.8646 38.1812C20.8109 38.1633 20.7317 38.1479 20.6882 38.1454C20.563 38.1454 20.4966 38.0738 20.4813 37.9307C20.4659 37.7953 20.4634 37.7953 20.6065 37.9001ZM27.4191 37.9512C27.4344 38.1173 27.3348 38.1991 27.0485 38.2655L26.9438 38.2911L26.9259 38.1531C26.9182 38.079 26.908 38.01 26.9054 37.9997C26.9029 37.9895 26.9693 37.9665 27.0537 37.9512C27.138 37.9359 27.2428 37.9052 27.2836 37.8822C27.3859 37.826 27.4089 37.8388 27.4191 37.9512Z" fill="#1FB887"/>
<path d="M24 47C36.7025 47 47 36.7025 47 24C47 11.2975 36.7025 1 24 1C11.2975 1 1 11.2975 1 24C1 36.7025 11.2975 47 24 47Z" stroke="#1FB887" stroke-width="2"/>
</svg>
