<svg width="320" height="76" viewBox="0 0 320 76" fill="none" xmlns="http://www.w3.org/2000/svg">
<path d="M7.88771 45.8069C10.1269 46.5677 12.2002 47.2906 14.2942 47.9944C18.2542 49.345 22.2142 50.7145 26.1742 52.0841C26.5681 52.2173 26.962 52.5026 27.2523 52.7879C29.7402 55.1847 32.2075 57.6195 34.6954 60.0163C34.7576 60.0924 34.8405 60.1304 34.9857 60.2446C37.9297 57.8858 40.708 55.394 43.1544 52.4646C42.18 52.1222 41.3299 51.7988 40.4592 51.5135C33.8454 49.2308 27.2315 46.9482 20.6177 44.6655C15.5796 42.9345 10.5208 41.1845 5.48269 39.4535C4.9851 39.2823 4.92231 38.7629 4.81864 38.2683C3.51247 33.5318 3.03573 30.2088 2.10275 25.3392C1.72956 22.9234 1.35685 19.9138 1.00439 17.4409C0.299988 12.4988 0.00919743 7.55673 0.00919743 1.76512C0.00919743 1.65098 -0.0115123 1.05885 0.00922067 0.849609C0.237283 0.925697 1.54891 1.49856 1.71477 1.55562C6.69068 3.34369 10.7696 4.92856 15.7455 6.71663C21.3434 8.73296 26.9413 10.7493 32.5184 12.7656C34.4881 13.4885 36.3748 13.2031 38.2822 12.4993C45.5595 9.85526 52.8575 7.24925 60.1347 4.62421C63.2032 3.52093 66.2924 2.41766 69.3609 1.29536C69.506 1.23829 69.6719 1.20025 69.817 1.1622C70.6878 14.801 68.3864 28.0403 64.2813 41.1274C63.0166 40.6899 61.7519 40.2334 60.4872 39.7959C57.9578 38.9019 55.4491 38.0078 52.9197 37.1328C52.4843 36.9807 52.3391 36.8095 52.4428 36.3529C53.3136 32.6817 54.1844 29.0294 54.9308 25.3392C55.3247 23.418 55.4698 21.4587 55.7186 19.5184C55.7393 19.3472 55.7186 19.157 55.7186 18.8527C54.7442 19.2141 53.8526 19.5184 52.9819 19.8418C47.3632 21.9533 41.7446 24.0647 36.1467 26.1952C35.5869 26.4044 35.0893 26.4425 34.4881 26.2332C27.9987 24.0267 21.5093 21.8391 15.0198 19.6326C14.7503 19.5375 14.4808 19.4804 14.0869 19.3663C14.2735 20.4125 14.4186 21.3636 14.5845 22.3147C14.9784 24.5973 15.4138 26.88 15.787 29.1626C15.8699 29.6572 16.0772 29.9235 16.5955 30.0947C20.7007 31.5213 24.8058 32.986 28.9109 34.4317C34.7783 36.5051 40.6665 38.5975 46.5339 40.6709C51.5513 42.44 56.5479 44.228 61.5653 45.9781C62.0007 46.1302 62.0836 46.2824 61.9178 46.6819C60.1347 51.0189 57.8541 55.1086 54.91 58.875C52.7123 61.6712 50.0793 64.1251 47.2388 66.3506C43.424 69.3561 39.4847 72.2665 35.6077 75.2149C35.2345 75.5002 34.9649 75.5192 34.5503 75.2149C29.8854 71.886 25.3656 68.367 21.4056 64.3343C19.5189 62.4321 17.7773 60.3777 16.2431 58.2473C13.4856 54.4048 10.9355 50.4292 8.30237 46.5107C8.17797 46.3585 8.09504 46.1493 7.88771 45.8069Z" fill="#EF0000"/>
<path d="M102.368 46L102.32 38.344L98.672 44.488H96.176L92.528 38.608V46H87.368V29.2H92.024L97.496 38.152L102.824 29.2H107.48L107.528 46H102.368ZM119.074 46.384C117.266 46.384 115.642 46.008 114.202 45.256C112.762 44.504 111.634 43.464 110.818 42.136C110.002 40.792 109.594 39.28 109.594 37.6C109.594 35.92 110.002 34.416 110.818 33.088C111.634 31.744 112.762 30.696 114.202 29.944C115.642 29.192 117.266 28.816 119.074 28.816C120.882 28.816 122.506 29.192 123.946 29.944C125.386 30.696 126.514 31.744 127.33 33.088C128.146 34.416 128.554 35.92 128.554 37.6C128.554 39.28 128.146 40.792 127.33 42.136C126.514 43.464 125.386 44.504 123.946 45.256C122.506 46.008 120.882 46.384 119.074 46.384ZM119.074 41.8C119.778 41.8 120.41 41.632 120.97 41.296C121.546 40.944 122.002 40.456 122.338 39.832C122.674 39.192 122.842 38.448 122.842 37.6C122.842 36.752 122.674 36.016 122.338 35.392C122.002 34.752 121.546 34.264 120.97 33.928C120.41 33.576 119.778 33.4 119.074 33.4C118.37 33.4 117.73 33.576 117.154 33.928C116.594 34.264 116.146 34.752 115.81 35.392C115.474 36.016 115.306 36.752 115.306 37.6C115.306 38.448 115.474 39.192 115.81 39.832C116.146 40.456 116.594 40.944 117.154 41.296C117.73 41.632 118.37 41.8 119.074 41.8ZM134.024 33.592H129.104V29.2H144.608V33.592H139.688V46H134.024V33.592ZM146.079 29.2H151.743V46H146.079V29.2ZM163.278 46.384C161.47 46.384 159.846 46.008 158.406 45.256C156.966 44.504 155.838 43.464 155.022 42.136C154.206 40.792 153.798 39.28 153.798 37.6C153.798 35.92 154.206 34.416 155.022 33.088C155.838 31.744 156.966 30.696 158.406 29.944C159.846 29.192 161.47 28.816 163.278 28.816C165.086 28.816 166.71 29.192 168.15 29.944C169.59 30.696 170.718 31.744 171.534 33.088C172.35 34.416 172.758 35.92 172.758 37.6C172.758 39.28 172.35 40.792 171.534 42.136C170.718 43.464 169.59 44.504 168.15 45.256C166.71 46.008 165.086 46.384 163.278 46.384ZM163.278 41.8C163.982 41.8 164.614 41.632 165.174 41.296C165.75 40.944 166.206 40.456 166.542 39.832C166.878 39.192 167.046 38.448 167.046 37.6C167.046 36.752 166.878 36.016 166.542 35.392C166.206 34.752 165.75 34.264 165.174 33.928C164.614 33.576 163.982 33.4 163.278 33.4C162.574 33.4 161.934 33.576 161.358 33.928C160.798 34.264 160.35 34.752 160.014 35.392C159.678 36.016 159.51 36.752 159.51 37.6C159.51 38.448 159.678 39.192 160.014 39.832C160.35 40.456 160.798 40.944 161.358 41.296C161.934 41.632 162.574 41.8 163.278 41.8ZM191.373 29.2V46H186.717L180.333 38.368V46H174.813V29.2H179.469L185.853 36.832V29.2H191.373ZM228.634 29.2L223.258 46H217.186L214.474 37.024L211.618 46H205.546L200.17 29.2H206.002L208.93 38.752L212.026 29.2H217.234L220.162 38.872L223.258 29.2H228.634ZM243.859 41.728V46H229.891V29.2H243.547V33.472H235.459V35.44H242.563V39.52H235.459V41.728H243.859ZM259.48 37.216C260.472 37.584 261.24 38.12 261.784 38.824C262.328 39.528 262.6 40.376 262.6 41.368C262.6 42.84 261.992 43.984 260.776 44.8C259.56 45.6 257.8 46 255.496 46H246.04V29.2H255.016C257.256 29.2 258.944 29.6 260.08 30.4C261.232 31.2 261.808 32.264 261.808 33.592C261.808 34.376 261.608 35.08 261.208 35.704C260.824 36.328 260.248 36.832 259.48 37.216ZM251.608 33.16V35.656H254.248C255.48 35.656 256.096 35.24 256.096 34.408C256.096 33.576 255.48 33.16 254.248 33.16H251.608ZM255.016 42.04C256.264 42.04 256.888 41.6 256.888 40.72C256.888 39.84 256.264 39.4 255.016 39.4H251.608V42.04H255.016ZM271.798 29.2H277.462V41.608H285.046V46H271.798V29.2ZM286.61 29.2H292.274V41.608H299.858V46H286.61V29.2ZM309.756 46.384C307.98 46.384 306.38 46.016 304.956 45.28C303.532 44.528 302.412 43.488 301.596 42.16C300.796 40.816 300.396 39.296 300.396 37.6C300.396 35.904 300.796 34.392 301.596 33.064C302.412 31.72 303.532 30.68 304.956 29.944C306.38 29.192 307.98 28.816 309.756 28.816C311.388 28.816 312.844 29.104 314.124 29.68C315.404 30.256 316.46 31.088 317.292 32.176L313.716 35.368C312.676 34.056 311.452 33.4 310.044 33.4C308.86 33.4 307.908 33.784 307.188 34.552C306.468 35.304 306.108 36.32 306.108 37.6C306.108 38.88 306.468 39.904 307.188 40.672C307.908 41.424 308.86 41.8 310.044 41.8C311.452 41.8 312.676 41.144 313.716 39.832L317.292 43.024C316.46 44.112 315.404 44.944 314.124 45.52C312.844 46.096 311.388 46.384 309.756 46.384Z" fill="#EF0000"/>
</svg>
