<svg width="70" height="76" viewBox="0 0 70 76" fill="none" xmlns="http://www.w3.org/2000/svg">
<path d="M7.88771 45.8069C10.1269 46.5677 12.2002 47.2906 14.2942 47.9944C18.2542 49.345 22.2142 50.7145 26.1742 52.0841C26.5681 52.2173 26.962 52.5026 27.2523 52.7879C29.7402 55.1847 32.2075 57.6195 34.6954 60.0163C34.7576 60.0924 34.8405 60.1304 34.9857 60.2446C37.9297 57.8858 40.708 55.394 43.1544 52.4646C42.18 52.1222 41.3299 51.7988 40.4592 51.5135C33.8454 49.2308 27.2315 46.9482 20.6177 44.6655C15.5796 42.9345 10.5208 41.1845 5.48269 39.4535C4.9851 39.2823 4.92231 38.7629 4.81864 38.2683C3.51247 33.5318 3.03573 30.2088 2.10275 25.3392C1.72956 22.9234 1.35685 19.9138 1.00439 17.4409C0.299988 12.4988 0.00919744 7.55673 0.00919744 1.76512C0.00919744 1.65098 -0.0115123 1.05885 0.00922068 0.849609C0.237283 0.925697 1.54891 1.49856 1.71477 1.55562C6.69068 3.34369 10.7696 4.92856 15.7455 6.71663C21.3434 8.73296 26.9413 10.7493 32.5184 12.7656C34.4881 13.4885 36.3748 13.2031 38.2822 12.4993C45.5595 9.85526 52.8575 7.24925 60.1347 4.62421C63.2032 3.52093 66.2924 2.41766 69.3609 1.29536C69.506 1.23829 69.6719 1.20025 69.817 1.1622C70.6878 14.801 68.3864 28.0403 64.2813 41.1274C63.0166 40.6899 61.7519 40.2334 60.4872 39.7959C57.9578 38.9019 55.4491 38.0078 52.9197 37.1328C52.4843 36.9807 52.3391 36.8095 52.4428 36.3529C53.3136 32.6817 54.1844 29.0294 54.9308 25.3392C55.3247 23.418 55.4698 21.4587 55.7186 19.5184C55.7393 19.3472 55.7186 19.157 55.7186 18.8527C54.7442 19.2141 53.8526 19.5184 52.9819 19.8418C47.3632 21.9533 41.7446 24.0647 36.1467 26.1952C35.5869 26.4044 35.0893 26.4425 34.4881 26.2332C27.9987 24.0267 21.5093 21.8391 15.0198 19.6326C14.7503 19.5375 14.4808 19.4804 14.0869 19.3663C14.2735 20.4125 14.4186 21.3636 14.5845 22.3147C14.9784 24.5973 15.4138 26.88 15.787 29.1626C15.8699 29.6572 16.0772 29.9235 16.5955 30.0947C20.7007 31.5213 24.8058 32.986 28.9109 34.4317C34.7783 36.5051 40.6665 38.5975 46.5339 40.6709C51.5513 42.44 56.5479 44.228 61.5653 45.9781C62.0007 46.1302 62.0836 46.2824 61.9178 46.6819C60.1347 51.0189 57.8541 55.1086 54.91 58.875C52.7123 61.6712 50.0793 64.1251 47.2388 66.3506C43.424 69.3561 39.4847 72.2665 35.6077 75.2149C35.2345 75.5002 34.9649 75.5192 34.5503 75.2149C29.8854 71.886 25.3656 68.367 21.4056 64.3343C19.5189 62.4321 17.7773 60.3777 16.2431 58.2473C13.4856 54.4048 10.9355 50.4292 8.30237 46.5107C8.17797 46.3585 8.09504 46.1493 7.88771 45.8069Z" fill="#EF0000"/>
</svg>
